# xmcd CD database file
#
# Track frame offsets:
#	150
#	15193
#	34925
#	47113
#	61449
#	74069
#	91797
#	102305
#	116348
#	132035
#
# Disc length: 1987 seconds
#
# Revision: 0
# Processed by: cddbd v1.4PL0 Copyright (c) Steve Scherf et al.
# Submitted via: CDex 1.50beta10
#
DISCID=7f07c10a
DTITLE=Joe Frates - Life, From L.A. To Tennessee
DYEAR=2002
DGENRE=Country
TTITLE0=Hard Knock U.
TTITLE1=L.A and Tennessee
TTITLE2=A Small Quiet Table In The Corner
TTITLE3=You Are To Me
TTITLE4=Heaven Is My Woman's Love
TTITLE5=Lord, If I Make It To Heaven
TTITLE6=Memory Lane
TTITLE7=Meet Me In Mexico
TTITLE8=I'll Give Up When You Give Up On Me
TTITLE9=Farmageddon
EXTD=YEAR: 2002
EXTT0=
EXTT1=
EXTT2=
EXTT3=
EXTT4=
EXTT5=
EXTT6=
EXTT7=
EXTT8=
EXTT9=
PLAYORDER=
